<?xml version="1.0" standalone="no"?><!DOCTYPE svg PUBLIC "-//W3C//DTD SVG 1.1//EN" "http://www.w3.org/Graphics/SVG/1.1/DTD/svg11.dtd"><svg t="1764502885627" class="icon" viewBox="0 0 1024 1024" version="1.1" xmlns="http://www.w3.org/2000/svg" p-id="2598" xmlns:xlink="http://www.w3.org/1999/xlink" width="200" height="200"><path d="M512 1024C229.233778 1024 0 794.766222 0 512S229.233778 0 512 0s512 229.233778 512 512-229.233778 512-512 512zM256 644.238222v81.564445c0.213333 6.485333 0.440889 12.970667 0.625778 19.470222 0.284444 10.24-0.284444 20.579556 0.967111 30.691555 2.688 21.831111 13.667556 31.786667 35.697778 33.848889 1.479111 0.199111 2.944 0.483556 4.408889 0.853334H726.186667l8.177777-1.166223c20.010667-2.901333 28.615111-11.790222 30.947556-31.829333 0.170667-1.493333 0.597333-2.958222 0.910222-4.423111v-76.600889c-0.170667-1.92-0.497778-3.84-0.497778-5.76-0.128-14.136889-0.199111-28.273778-0.312888-42.424889 0-1.436444-0.128-2.872889-0.199112-4.465778-7.765333 4.522667-15.018667 9.102222-22.613333 13.056-23.125333 12.060444-47.516444 17.493333-73.628444 12.970667-18.56-3.242667-35.555556-10.652444-51.911111-19.584-4.508444-2.446222-8.846222-6.983111-13.454223-6.897778-4.608 0.099556-9.159111 4.522667-13.724444 7.096889-37.688889 21.148444-77.255111 28.401778-118.926222 14.136889-16.739556-5.745778-32.696889-13.724444-48.896-20.906667-2.787556-1.251556-4.693333-1.28-7.111111 0.568889a112.540444 112.540444 0 0 1-10.808889 7.011556c-25.571556 15.089778-52.935111 21.589333-82.631111 17.024-20.693333-3.242667-39.751111-10.951111-58.083556-20.736-2.417778-1.237333-4.949333-2.332444-7.424-3.498667z m0.910222-39.224889c16.824889 10.567111 33.123556 20.764444 51.256889 27.704889 21.191111 8.135111 42.154667 7.779556 62.094222-2.716444 15.203556-7.964444 29.511111-17.635556 44.060445-26.766222 2.659556-1.720889 4.465778-1.962667 7.395555-0.554667 16.739556 8.064 33.365333 16.440889 50.517334 23.523555 32.981333 13.610667 65.635556 12.046222 97.322666-4.508444a638.492444 638.492444 0 0 0 30.862223-17.28c3.2-1.863111 5.376-1.763556 8.590222 0 17.251556 9.486222 34.417778 19.2 52.138666 27.790222 17.251556 8.376889 35.640889 9.571556 53.304889 1.649778 16.867556-7.594667 33.109333-16.824889 49.592889-25.358222a4.906667 4.906667 0 0 0 0.753778-1.322667c-4.380444-7.736889-8.576-16.028444-13.553778-23.822222-11.406222-17.891556-27.52-26.325333-49.208889-26.325333-125.198222 0.327111-250.396444 0.170667-375.608889 0.170666-4.707556 0-9.472 0.128-14.136888 0.483556-16.270222 1.237333-29.767111 7.964444-39.196445 21.418666-5.660444 8.149333-10.595556 16.896-16.184889 25.912889z m258.531556-259.797333c9.386667-5.048889 17.891556-9.813333 25.244444-16.355556 7.608889-6.883556 12.515556-15.004444 13.184-25.557333 0.654222-10.538667-2.375111-20.323556-6.769778-29.653333-10.609778-22.584889-26.168889-41.742222-42.524444-60.259556a2.048 2.048 0 0 0-0.910222 0c-0.952889 10.24-4.949333 19.498667-9.870222 28.401778-3.427556 6.186667-6.940444 12.302222-10.439112 18.446222-6.229333 10.951111-12.743111 21.802667-15.786666 34.232889-5.191111 21.262222 10.496 45.482667 32.355555 49.607111-0.512-1.265778-0.938667-2.389333-1.450666-3.498666-8.661333-19.015111-7.139556-36.750222 6.172444-53.333334 5.347556-6.613333 10.737778-13.397333 11.847111-22.471111 8.419556 26.680889 15.672889 53.219556-1.052444 80.440889z m-4.309334 21.006222a27.448889 27.448889 0 0 0-27.448888 27.448889v115.2a27.448889 27.448889 0 1 0 54.883555 0v-115.2a27.448889 27.448889 0 0 0-27.448889-27.448889z" fill="#da7ea8" p-id="2599"></path></svg>